<?xml version="1.0" encoding="UTF-8"?>
<svg id="Layer_2" xmlns="http://www.w3.org/2000/svg" viewBox="0 0 158.66 204.35">
  <g id="Artwork">
    <g>
      <path d="M26.56,34.75l1.72-.56c.36-.12.75.08.87.44s-.08.75-.44.87l-1.73.56c.04.23.05.46.05.7,0,.21-.02.42-.04.62l2.96.96s.81.24,2.01-.15c2.23-.72,3.46-3.13,2.73-5.36-.35-1.08-1.1-1.96-2.11-2.48-1.01-.52-2.16-.61-3.24-.26-1.21.39-1.7,1.03-1.72,1.06l-1.81,2.5c.29.34.55.7.75,1.1Z"/>
      <path d="M28.39,28.69c.14-.06.28-.11.43-.16.9-.29,1.84-.36,2.76-.22.04-1.29-.3-2.64-.5-3.33-.71.02-2.1.13-3.32.57.41.8.64,1.71.64,2.67,0,.17,0,.32,0,.47Z"/>
      <path d="M16.18,28.53c.15.05.29.1.43.16,0-.15-.02-.3-.02-.46,0-.97.24-1.88.65-2.69-1.22-.44-2.61-.54-3.32-.56-.2.69-.52,2.03-.48,3.33.9-.14,1.84-.07,2.74.22Z"/>
      <path d="M13.04,38.2c1.21.39,1.98.16,2.02.15l2.95-.96c-.03-.2-.04-.41-.04-.62,0-.24.02-.47.05-.7l-1.72-.56c-.36-.12-.56-.51-.44-.87s.51-.56.87-.44l1.71.56c.2-.4.46-.77.76-1.09l-1.81-2.49s-.51-.67-1.72-1.06c-.43-.14-.88-.21-1.32-.21-.66,0-1.32.16-1.93.47-1.01.52-1.76,1.39-2.11,2.48-.73,2.21.5,4.61,2.73,5.34Z"/>
      <path d="M20.53,32.68c.4-.19.83-.33,1.28-.4v-1.78c0-.38.31-.69.69-.69s.69.31.69.69v1.79c.45.07.88.21,1.28.4l1.81-2.49s.48-.69.48-1.96c0-2.34-1.91-4.25-4.25-4.25s-4.25,1.91-4.25,4.25c0,1.27.46,1.94.48,1.96l1.79,2.48Z"/>
      <path d="M32.47,39.77c-.15.05-.3.09-.44.13.1.11.19.23.28.36.57.78.92,1.66,1.05,2.55,1.25-.36,2.43-1.1,3.02-1.5-.24-.67-.77-1.95-1.57-2.98-.63.64-1.43,1.14-2.34,1.44Z"/>
      <path d="M77.6,55.55V22.39c0-.89-4.44-3.96-14.6-5.37s-13.08-4.43-13.08-4.43v35.69c1.72,1.41,2.02,1.23,13.74,2.59,12.1,1.4,13.94,4.68,13.94,4.68Z"/>
      <path d="M95.03,50.87c11.72-1.36,12.02-1.18,13.74-2.59V12.59s-2.92,3.02-13.08,4.43-14.6,4.48-14.6,5.37v33.16s1.84-3.28,13.94-4.68Z"/>
      <path d="M20.9,46.23c.75-1.03.77-1.84.77-1.87v-3.13c-.44-.08-.85-.22-1.23-.42l-1.08,1.49c-.13.19-.34.28-.56.28-.14,0-.28-.04-.4-.13-.31-.22-.38-.65-.15-.96l1.08-1.49c-.31-.31-.58-.66-.79-1.04l-2.96.96s-.79.28-1.54,1.31c-1.38,1.9-.96,4.56.94,5.94,1.88,1.38,4.55.95,5.92-.94Z"/>
      <path d="M22.75,47.2c-.09-.13-.18-.26-.26-.38-.08.13-.16.25-.26.38-.57.78-1.29,1.38-2.1,1.79.73,1.07,1.79,1.97,2.36,2.4.56-.44,1.62-1.34,2.35-2.41-.8-.41-1.52-1-2.09-1.78Z"/>
      <path d="M12.69,40.26c.09-.13.19-.25.28-.36-.14-.04-.29-.08-.44-.13-.92-.3-1.71-.8-2.35-1.45-.79,1.03-1.32,2.31-1.56,2.99.59.4,1.77,1.13,3.02,1.49.13-.9.48-1.77,1.05-2.54Z"/>
      <path d="M29.44,39.92h0l-2.96-.96c-.21.38-.48.74-.79,1.04l1.08,1.49c.22.31.16.74-.15.96-.12.09-.26.13-.4.13-.21,0-.42-.1-.56-.28l-1.09-1.49c-.38.2-.8.34-1.23.42v3.13s.02.84.77,1.87c1.38,1.9,4.04,2.32,5.94.94,1.9-1.38,2.32-4.04.94-5.94-.75-1.02-1.5-1.3-1.54-1.31Z"/>
      <path d="M22.5,40.27c1.93,0,3.51-1.57,3.51-3.51s-1.57-3.51-3.51-3.51-3.51,1.57-3.51,3.51,1.57,3.51,3.51,3.51Z"/>
      <path d="M143.1,39.92h-.01l-2.96-.96c-.21.38-.48.74-.79,1.04l1.08,1.49c.22.31.16.74-.15.96-.12.09-.26.13-.4.13-.21,0-.42-.1-.56-.28l-1.09-1.49c-.38.2-.8.34-1.23.42v3.13s.02.84.77,1.87c1.38,1.9,4.04,2.32,5.94.94s2.32-4.04.94-5.94c-.74-1.02-1.5-1.3-1.54-1.31Z"/>
      <path d="M148.36,32.84c-.35-1.08-1.1-1.96-2.11-2.48-1.01-.52-2.17-.61-3.25-.26-1.21.39-1.7,1.03-1.72,1.06l-1.81,2.5c.3.32.56.69.76,1.09l1.72-.56c.36-.12.75.08.87.44.12.36-.08.75-.44.87l-1.73.56c.04.23.05.46.05.7,0,.21-.02.42-.04.62l2.96.96s.81.24,2.01-.15c2.23-.72,3.45-3.12,2.73-5.35Z"/>
      <path d="M134.57,46.23c.75-1.03.77-1.84.77-1.87v-3.13c-.44-.08-.85-.22-1.23-.42l-1.08,1.49c-.13.19-.34.28-.56.28-.14,0-.28-.04-.4-.13-.31-.22-.38-.65-.15-.96l1.08-1.49c-.31-.31-.58-.66-.79-1.04l-2.96.96s-.79.28-1.54,1.31c-1.38,1.9-.96,4.56.94,5.94,1.88,1.38,4.54.95,5.92-.94Z"/>
      <path d="M136.42,47.2c-.09-.13-.18-.26-.26-.38-.08.13-.16.25-.26.38-.57.78-1.29,1.38-2.1,1.79.73,1.07,1.79,1.97,2.36,2.4.56-.44,1.62-1.34,2.35-2.41-.8-.41-1.52-1-2.09-1.78Z"/>
      <path d="M156.05,15.54c-1.36-.64-34.08-15.54-76.71-15.54S4.02,14.9,2.64,15.53l-2.64,1.21v68.83l.04-.02c.31,9.26,1.81,26.35,7.97,45.15,12.05,36.76,36.35,62.15,70.26,73.43.45.15.92.22,1.39.22s.94-.07,1.39-.22c33.92-11.28,58.11-36.71,69.93-73.52,6-18.67,7.4-35.65,7.67-44.97h.01V16.76l-2.61-1.22ZM42.72,19.71c0-.24.1-.46.28-.62.18-.15.42-.22.65-.19l1.85.28v-3.62c0-.26.12-.51.34-.66.21-.15.48-.19.73-.11l1.59.52v-2.71c0-.63.34-1.22.89-1.53.27-.16.57-.23.88-.23s.62.08.89.24.53.32.8.5c1.22.78,2.73,1.75,6.88,2.75,1.18.29,2.72.56,4.34.85,2.8.5,5.98,1.06,8.83,1.93,3.54,1.08,5.93,2.44,7.3,4.17.25.31.38.69.38,1.08,0-.39.14-.77.38-1.08,1.38-1.73,3.76-3.09,7.3-4.17,2.86-.87,6.03-1.43,8.83-1.93,1.62-.29,3.15-.56,4.34-.85,4.14-1,5.66-1.97,6.88-2.75.27-.17.53-.34.8-.5s.58-.24.89-.24.61.08.88.23c.55.31.89.9.89,1.53v2.71l1.59-.52c.25-.08.52-.04.73.11.21.15.34.4.34.66v3.62l1.85-.28c.23-.03.47.03.65.19.18.15.28.38.28.62v29.8c0,2.83-2.13,4.03-7.44,3.75-18.04-.55-24.8,4.11-24.8,4.11-.04,1.67-1.71,2.71-4.39,2.71s-4.35-1.04-4.39-2.71c0,0-6.77-4.66-24.8-4.11-5.31.28-7.44-.92-7.44-3.75,0-2.82,0-29.8,0-29.8ZM77.96,77.99c1.1.48,4.12,2.44,4.92,4.52.28.72-.25,1.77-.6,2.55-1.05,2.33-1.9,4.14-2.02,4.41-.25.49-1.83,3.77-2,7.86-.12,2.8.4,6.33,2.83,9.55-.34-.04-.52-.06-.52-.06-2.36-.2-4.88.12-5.9.27-1.07.06-1.64-.42-2.11-1.09-1.45-2.07-3.81-3.95-7.53-5.06-4.49-1.35-10.41-2.94-15.33-4.22h0c-9.41-2.65-6.89-8.19-9.15-7.97s-1.08,3.99-.22,5.54c-3.81-.84-5.85-2.22-5.84-2.21-6.94-5.56-6.62-12.38-5.07-17.24,13.08-3.52,30.72-6.9,50.26-6.9.23,0,.45.01.68.01,2.19,1.83,6.74,6.07,5.17,9.66-.11.25-.21.51-.32.77-2.91-1.99-5.79-3.13-6.24-3.32-1.22-.52-2.34-.58-2.73.38-.4.95.52,2.02,1.73,2.55ZM84.54,91.64l.05-.09c.14-.29,3.38-7.2,5.37-12.12,1.83-4.51-1.77-8.96-4.26-11.36,8.19.29,15.94,1.13,23.08,2.28,1.04.88,2.16,1.73,2.33,2.64-6.56-.58-10.15.88-9.74,3.2.2.94,1.64,1.26,2.92.94,1.13-.2,6.07-.69,9.73,2.1,1.67,1.27,2.66,3.36,2.95,6.19.01.07.01.14.02.21.02.26.04.52.05.79.16,4.52-1.87,8.47-6.06,11.76-13.5,10.6-21.42,9.14-22.55,8.85-3.75-2.22-5.52-5.27-5.39-9.34.11-3.31,1.49-6.03,1.5-6.05ZM7.38,42.12l-.37-.29.13-.45c.03-.11.73-2.48,2.16-4.18-.86-1.42-1.12-3.19-.57-4.88.49-1.5,1.53-2.72,2.94-3.44.13-.07.27-.13.41-.19-.17-2.21.65-4.53.69-4.64l.16-.44.47-.02c.12,0,2.59-.07,4.64.77,1.08-1.25,2.68-2.05,4.47-2.05s3.39.8,4.48,2.06c2.05-.84,4.51-.79,4.62-.78h.47s.16.45.16.45c.04.11.87,2.44.71,4.65.13.06.26.11.39.18,1.41.72,2.45,1.94,2.94,3.44.55,1.7.29,3.48-.58,4.9,1.43,1.69,2.14,4.05,2.17,4.16l.13.45-.37.29c-.09.07-2.05,1.58-4.21,2.11-.14,1.65-.97,3.23-2.41,4.28-1.05.76-2.26,1.13-3.46,1.13-.46,0-.92-.05-1.37-.16-1.16,1.89-3.19,3.28-3.28,3.35l-.39.26-.39-.26c-.1-.06-2.14-1.46-3.3-3.35-.44.1-.9.16-1.35.16-1.2,0-2.42-.37-3.46-1.13-1.45-1.05-2.28-2.64-2.41-4.3-2.17-.52-4.13-2.01-4.22-2.08ZM25.24,87.25c-3.34-2.13-5.9-5.35-7.31-8.95,2.11-.71,4.48-1.45,7.08-2.22h0c-.66,2.98-.99,7.29.23,11.17ZM142.42,128.07c-4.88,15.07-11.96,28.13-21.05,38.8-10.99,12.91-25.02,22.38-41.71,28.19-16.7-5.81-30.77-15.28-41.83-28.18-9.14-10.66-16.3-23.71-21.27-38.77-6.81-20.63-7.62-39.53-7.67-46.51,1.29-.52,3.05-1.2,5.21-1.98,1.45,4.4,4.71,8.38,10.01,12.12,7,4.93,14.63,7.15,14.95,7.24,0,0,15.45,4.46,24.6,7.2,5.83,1.86,5.56,6.18,4.63,9.15-.07.18-.13.36-.2.54-.12.36-.26.73-.42,1.1-.01.02-.01.03-.02.05-.16.36-.33.73-.53,1.1-.25-.24-.85-3.73-7.26-6.89s-16.11-1.72-17.2-1.19c-.55.27-.56.55-.08.91.28.21.59.39.82.65,1.53,1.54,1.29,5.13,5.79,9.79,1.38,1.24,2.9,2.28,4.55,3.12,6.38,2.98,9.33,1.62,10.51,1.49-.08.22-.13.45-.23.66-9.79,17.22-13.65,32.03-14.21,44.39l1.97,1.66c3.79,3.25,7.87,6.18,12.21,8.77h0s3.61,2.05,3.61,2.05c3.84,2.07,7.88,3.88,12.08,5.44,11.54-4.27,21.72-10.47,30.31-18.47,0,0,1.12-1.07,1.79-1.84-1.24-.12-2.49-.23-3.78-.29-16.56-.72-21.3-7.3-18.41-17.26.09-.31.56-1.32-.08-1.89-.52-.46-1.39-.09-1.73.08-17.04,8.09-21.83,32.11-21.83,32.11,0,0-.68-19.19,12.69-32.01s24.63-10.23,25.13-10.23c5.43,1.29,6.59-1.91,6.88-4.48.01-.36.17-.7.47-.97,2.5-1.75,5.29-8.7,2.47-11.2-1.38-1.29-6.94-2.68-8.3-3.13-1.22-.41-2.44-.81-3.58-1.44-.7-.39-1.31-.82-1.64-1.61-.99-2.84-3.67-4.4-4.3-4.83,5.63-1.27,11.74-4.46,18.18-9.52,1.96-1.54,3.56-3.23,4.8-5.04,1.22-1.38,1.3-2.97,3.49-3.9,4.59-2.19,4.45-4.59,3.66-5.39-.8-.8-3.74.34-4.09.68.1-1.33.06-2.69-.14-4.09-.01-.05-.02-.11-.03-.16-.02-.1-.03-.21-.05-.31-.03-.19-.06-.38-.1-.57-.01-.04-.02-.08-.02-.12-.93-4.71-3.56-8.68-6.26-11.56,16.87,3.29,29.44,7.99,34.57,10.09,0,7.01-.71,25.86-7.36,46.45ZM151.29,42.11c-.09.07-2.05,1.58-4.21,2.11-.14,1.65-.97,3.23-2.41,4.28-1.05.76-2.26,1.13-3.46,1.13-.46,0-.92-.05-1.37-.16-1.16,1.89-3.19,3.28-3.28,3.35l-.39.26-.39-.26c-.1-.06-2.14-1.46-3.3-3.35-.44.1-.9.16-1.35.16-1.2,0-2.42-.37-3.46-1.13-1.45-1.05-2.27-2.64-2.41-4.3-2.15-.52-4.11-2.02-4.2-2.08l-.37-.29.13-.45c.03-.11.73-2.48,2.16-4.18-.86-1.42-1.12-3.19-.57-4.88.49-1.5,1.53-2.72,2.94-3.44.13-.07.27-.13.41-.19-.17-2.21.65-4.53.69-4.64l.16-.44.47-.02c.12,0,2.59-.07,4.64.77,1.08-1.25,2.68-2.05,4.47-2.05s3.39.8,4.48,2.06c2.05-.84,4.51-.79,4.62-.78h.47s.16.45.16.45c.04.11.87,2.44.71,4.65.13.06.26.11.39.18,1.41.72,2.45,1.94,2.94,3.44.55,1.7.29,3.48-.58,4.9,1.44,1.69,2.14,4.05,2.17,4.16l.13.45-.39.29Z"/>
      <path d="M146.14,39.77c-.15.05-.3.09-.44.13.1.11.19.23.28.36.57.78.91,1.66,1.05,2.55,1.25-.36,2.43-1.1,3.02-1.5-.24-.67-.77-1.95-1.57-2.98-.64.64-1.43,1.14-2.34,1.44Z"/>
      <path d="M134.2,32.68c.4-.19.83-.33,1.28-.4v-1.78c0-.38.31-.69.69-.69s.69.31.69.69v1.79c.45.07.88.21,1.28.4l1.81-2.49s.48-.69.48-1.96c0-2.34-1.91-4.25-4.25-4.25s-4.25,1.91-4.25,4.25c0,1.27.46,1.94.48,1.96l1.79,2.48Z"/>
      <path d="M142.06,28.69c.14-.06.28-.11.43-.16.9-.29,1.84-.36,2.76-.22.04-1.29-.3-2.64-.5-3.33-.71.02-2.1.13-3.31.57.41.8.64,1.71.64,2.67-.01.17-.01.32-.02.47Z"/>
      <path d="M132.66,36.77c0,1.93,1.57,3.51,3.51,3.51s3.51-1.57,3.51-3.51-1.57-3.51-3.51-3.51-3.51,1.57-3.51,3.51Z"/>
      <path d="M129.85,28.53c.15.05.3.1.43.16-.01-.15-.02-.3-.02-.46,0-.97.23-1.88.65-2.69-1.22-.44-2.61-.54-3.32-.56-.2.69-.52,2.03-.48,3.33.9-.14,1.84-.07,2.74.22Z"/>
      <path d="M128.72,38.35l2.95-.96c-.03-.2-.04-.41-.04-.62,0-.24.02-.47.05-.7l-1.72-.56c-.36-.12-.56-.51-.44-.87s.51-.56.87-.44l1.71.56c.2-.4.46-.77.76-1.09l-1.81-2.49s-.51-.67-1.72-1.06c-.43-.14-.88-.21-1.32-.21-.66,0-1.32.16-1.93.47-1.01.52-1.76,1.39-2.11,2.48-.72,2.23.5,4.63,2.73,5.36,1.21.37,1.99.14,2.02.13Z"/>
      <path d="M123.84,38.32c-.79,1.03-1.32,2.31-1.56,2.99.59.4,1.77,1.13,3.02,1.49.14-.89.49-1.76,1.05-2.54.09-.13.19-.25.28-.36-.14-.04-.29-.08-.44-.13-.91-.3-1.71-.81-2.35-1.45Z"/>
    </g>
  </g>
</svg>